<svg role="img" aria-label="Жим гантелей лёжа" xmlns="http://www.w3.org/2000/svg" viewBox="0 0 240 180" width="480" height="360"><defs>
<linearGradient id="bg" x1="0" y1="0" x2="1" y2="1"><stop offset="0" stop-color="#241e63"/><stop offset="1" stop-color="#120f33"/></linearGradient>
<radialGradient id="glow" cx=".78" cy=".12" r=".7"><stop offset="0" stop-color="#8b5cf6" stop-opacity=".38"/><stop offset="1" stop-color="#8b5cf6" stop-opacity="0"/></radialGradient>
<radialGradient id="glow2" cx=".1" cy=".95" r=".6"><stop offset="0" stop-color="#3b82f6" stop-opacity=".22"/><stop offset="1" stop-color="#3b82f6" stop-opacity="0"/></radialGradient>
<linearGradient id="body" gradientUnits="userSpaceOnUse" x1="40" y1="20" x2="200" y2="170"><stop offset="0" stop-color="#d8ccff"/><stop offset=".45" stop-color="#a78bfa"/><stop offset="1" stop-color="#60a5fa"/></linearGradient>
<linearGradient id="far" gradientUnits="userSpaceOnUse" x1="40" y1="20" x2="200" y2="170"><stop offset="0" stop-color="#7c6be0"/><stop offset="1" stop-color="#3f63d8"/></linearGradient>
<linearGradient id="prop" x1="0" y1="0" x2="0" y2="1"><stop offset="0" stop-color="#4a43a8"/><stop offset="1" stop-color="#2e2878"/></linearGradient>
<linearGradient id="iron" x1="0" y1="0" x2="1" y2="1"><stop offset="0" stop-color="#e0e7ff"/><stop offset="1" stop-color="#93a4f5"/></linearGradient>
<marker id="ah" viewBox="0 0 10 10" refX="5.5" refY="5" markerWidth="4.2" markerHeight="4.2" orient="auto-start-reverse"><path d="M0 0 L10 5 L0 10 z" fill="#f5a3ff"/></marker>
</defs><rect width="240" height="180" rx="18" fill="url(#bg)"/><rect width="240" height="180" rx="18" fill="url(#glow)"/><rect width="240" height="180" rx="18" fill="url(#glow2)"/><path d="M14 150.5 H226" stroke="rgba(196,181,253,.22)" stroke-width="1.5" stroke-linecap="round"/><rect x="81" y="102.5" width="88" height="7" rx="3.5" fill="url(#prop)" stroke="rgba(165,180,252,.55)" stroke-width="1.2"/><rect x="87" y="109.5" width="5" height="40.5" rx="1.5" fill="#2b2570" stroke="rgba(165,180,252,.55)" stroke-width="1.2"/><rect x="158" y="109.5" width="5" height="40.5" rx="1.5" fill="#2b2570" stroke="rgba(165,180,252,.55)" stroke-width="1.2"/><g><path d="M99 94.5 L68.7 112 L69.9 146" fill="none" stroke="rgba(196,181,253,.24)" stroke-width="10.58" stroke-linecap="round" stroke-linejoin="round"/><path d="M69.9 146 L79.9 145.7" stroke="rgba(196,181,253,.24)" stroke-width="6.5" stroke-linecap="round"/><path d="M145 94.5 L131.2 116.6 L132.9 92.6" fill="none" stroke="rgba(196,181,253,.24)" stroke-width="8.5" stroke-linecap="round" stroke-linejoin="round"/><path d="M99 94.5 L145 94.5" stroke="rgba(196,181,253,.24)" stroke-width="16" stroke-linecap="round"/><path d="M99 94.5 L68.1 111 L68.1 145" fill="none" stroke="rgba(196,181,253,.24)" stroke-width="10.58" stroke-linecap="round" stroke-linejoin="round"/><path d="M68.1 145 L78.1 145" stroke="rgba(196,181,253,.24)" stroke-width="6.5" stroke-linecap="round"/><path d="M145 94.5 L161.4 92.8" stroke="rgba(196,181,253,.24)" stroke-width="7" stroke-linecap="round"/><circle cx="161.4" cy="92.8" r="10.5" fill="rgba(196,181,253,.24)"/><path d="M145 94.5 L132 117 L132.8 93.1" fill="none" stroke="rgba(196,181,253,.24)" stroke-width="8.5" stroke-linecap="round" stroke-linejoin="round"/><g opacity=".28"><g transform="translate(132.8 93.1) rotate(90) scale(1)"><rect x="-11" y="-1.8" width="22" height="3.6" rx="1.8" fill="url(#iron)"/><rect x="-13" y="-6.5" width="6" height="13" rx="2" fill="#4f46e5" stroke="#a5b4fc" stroke-width="1"/><rect x="7" y="-6.5" width="6" height="13" rx="2" fill="#4f46e5" stroke="#a5b4fc" stroke-width="1"/></g></g></g><path d="M99 94.5 L68.7 112 L69.9 146" fill="none" stroke="url(#far)" stroke-width="10.58" stroke-linecap="round" stroke-linejoin="round"/><path d="M69.9 146 L79.9 145.7" stroke="url(#far)" stroke-width="6.5" stroke-linecap="round"/><path d="M145 94.5 L145.9 68.5 L146.7 44.6" fill="none" stroke="url(#far)" stroke-width="8.5" stroke-linecap="round" stroke-linejoin="round"/><circle cx="146.7" cy="44.6" r="4.6" fill="url(#far)"/><path d="M99 94.5 L145 94.5" stroke="url(#body)" stroke-width="16" stroke-linecap="round"/><path d="M99 94.5 L68.1 111 L68.1 145" fill="none" stroke="url(#body)" stroke-width="10.58" stroke-linecap="round" stroke-linejoin="round"/><path d="M68.1 145 L78.1 145" stroke="url(#body)" stroke-width="6.5" stroke-linecap="round"/><path d="M145 94.5 L161.4 92.8" stroke="url(#body)" stroke-width="7" stroke-linecap="round"/><circle cx="161.4" cy="92.8" r="10.5" fill="url(#body)"/><path d="M158.9 103 A10.5 10.5 0 0 0 152.9 99 Q159.9 95 158.9 103Z" fill="#3b2f8f" opacity=".85"/><path d="M145 94.5 L145 68.5 L145 44.5" fill="none" stroke="url(#body)" stroke-width="8.5" stroke-linecap="round" stroke-linejoin="round"/><circle cx="145" cy="44.5" r="4.6" fill="url(#body)"/><g transform="translate(145 44.5) rotate(90) scale(1)"><rect x="-11" y="-1.8" width="22" height="3.6" rx="1.8" fill="url(#iron)"/><rect x="-13" y="-6.5" width="6" height="13" rx="2" fill="#4f46e5" stroke="#a5b4fc" stroke-width="1"/><rect x="7" y="-6.5" width="6" height="13" rx="2" fill="#4f46e5" stroke="#a5b4fc" stroke-width="1"/></g><path d="M163 64.5 L163 88.5" stroke="#f5a3ff" stroke-width="2.6" stroke-linecap="round" fill="none" marker-start="url(#ah)" marker-end="url(#ah)"/></svg>