<svg role="img" aria-label="Французский жим гантели из-за головы" xmlns="http://www.w3.org/2000/svg" viewBox="0 0 240 180" width="480" height="360"><defs>
<linearGradient id="bg" x1="0" y1="0" x2="1" y2="1"><stop offset="0" stop-color="#241e63"/><stop offset="1" stop-color="#120f33"/></linearGradient>
<radialGradient id="glow" cx=".78" cy=".12" r=".7"><stop offset="0" stop-color="#8b5cf6" stop-opacity=".38"/><stop offset="1" stop-color="#8b5cf6" stop-opacity="0"/></radialGradient>
<radialGradient id="glow2" cx=".1" cy=".95" r=".6"><stop offset="0" stop-color="#3b82f6" stop-opacity=".22"/><stop offset="1" stop-color="#3b82f6" stop-opacity="0"/></radialGradient>
<linearGradient id="body" gradientUnits="userSpaceOnUse" x1="40" y1="20" x2="200" y2="170"><stop offset="0" stop-color="#d8ccff"/><stop offset=".45" stop-color="#a78bfa"/><stop offset="1" stop-color="#60a5fa"/></linearGradient>
<linearGradient id="far" gradientUnits="userSpaceOnUse" x1="40" y1="20" x2="200" y2="170"><stop offset="0" stop-color="#7c6be0"/><stop offset="1" stop-color="#3f63d8"/></linearGradient>
<linearGradient id="prop" x1="0" y1="0" x2="0" y2="1"><stop offset="0" stop-color="#4a43a8"/><stop offset="1" stop-color="#2e2878"/></linearGradient>
<linearGradient id="iron" x1="0" y1="0" x2="1" y2="1"><stop offset="0" stop-color="#e0e7ff"/><stop offset="1" stop-color="#93a4f5"/></linearGradient>
<marker id="ah" viewBox="0 0 10 10" refX="5.5" refY="5" markerWidth="4.2" markerHeight="4.2" orient="auto-start-reverse"><path d="M0 0 L10 5 L0 10 z" fill="#f5a3ff"/></marker>
</defs><rect width="240" height="180" rx="18" fill="url(#bg)"/><rect width="240" height="180" rx="18" fill="url(#glow)"/><rect width="240" height="180" rx="18" fill="url(#glow2)"/><path d="M14 150.5 H226" stroke="rgba(196,181,253,.22)" stroke-width="1.5" stroke-linecap="round"/><g><path d="M119.7 89.4 L118.7 118.5 L118.7 146.7" fill="none" stroke="rgba(196,181,253,.24)" stroke-width="8.7814" stroke-linecap="round" stroke-linejoin="round"/><path d="M118.7 146.7 L127 146.7" stroke="rgba(196,181,253,.24)" stroke-width="5.395" stroke-linecap="round"/><path d="M119.7 51.2 L124.9 30.3 L116.2 48.2" fill="none" stroke="rgba(196,181,253,.24)" stroke-width="7.055" stroke-linecap="round" stroke-linejoin="round"/><path d="M119.7 89.4 L119.7 51.2" stroke="rgba(196,181,253,.24)" stroke-width="13.28" stroke-linecap="round"/><path d="M119.7 89.4 L120.7 118.5 L120.7 146.7" fill="none" stroke="rgba(196,181,253,.24)" stroke-width="8.7814" stroke-linecap="round" stroke-linejoin="round"/><path d="M120.7 146.7 L129 146.7" stroke="rgba(196,181,253,.24)" stroke-width="5.395" stroke-linecap="round"/><path d="M119.7 51.2 L119.7 37.6" stroke="rgba(196,181,253,.24)" stroke-width="5.81" stroke-linecap="round"/><circle cx="119.7" cy="37.6" r="8.7" fill="rgba(196,181,253,.24)"/><path d="M119.7 51.2 L124.2 30.1 L116.1 48.3" fill="none" stroke="rgba(196,181,253,.24)" stroke-width="7.055" stroke-linecap="round" stroke-linejoin="round"/></g><path d="M119.7 89.4 L118.7 118.5 L118.7 146.7" fill="none" stroke="url(#far)" stroke-width="8.7814" stroke-linecap="round" stroke-linejoin="round"/><path d="M118.7 146.7 L127 146.7" stroke="url(#far)" stroke-width="5.395" stroke-linecap="round"/><path d="M119.7 51.2 L121.2 29.7 L121.9 9.8" fill="none" stroke="url(#far)" stroke-width="7.055" stroke-linecap="round" stroke-linejoin="round"/><circle cx="121.9" cy="9.8" r="3.8" fill="url(#far)"/><path d="M119.7 89.4 L119.7 51.2" stroke="url(#body)" stroke-width="13.28" stroke-linecap="round"/><path d="M119.7 89.4 L120.7 118.5 L120.7 146.7" fill="none" stroke="url(#body)" stroke-width="8.7814" stroke-linecap="round" stroke-linejoin="round"/><path d="M120.7 146.7 L129 146.7" stroke="url(#body)" stroke-width="5.395" stroke-linecap="round"/><path d="M119.7 51.2 L119.7 37.6" stroke="url(#body)" stroke-width="5.81" stroke-linecap="round"/><circle cx="119.7" cy="37.6" r="8.7" fill="url(#body)"/><path d="M127.9 40.5 A8.7 8.7 0 0 0 124.1 45.1 Q121.4 39 127.9 40.5Z" fill="#3b2f8f" opacity=".85"/><path d="M119.7 51.2 L120.5 29.7 L120.5 9.8" fill="none" stroke="url(#body)" stroke-width="7.055" stroke-linecap="round" stroke-linejoin="round"/><circle cx="120.5" cy="9.8" r="3.8" fill="url(#body)"/><g transform="translate(120.5 6.8) rotate(90) scale(0.9)"><rect x="-11" y="-1.8" width="22" height="3.6" rx="1.8" fill="url(#iron)"/><rect x="-13" y="-6.5" width="6" height="13" rx="2" fill="#4f46e5" stroke="#a5b4fc" stroke-width="1"/><rect x="7" y="-6.5" width="6" height="13" rx="2" fill="#4f46e5" stroke="#a5b4fc" stroke-width="1"/></g><path d="M105.5 3.7 A30 30 0 0 1 130.7 1.5" stroke="#f5a3ff" stroke-width="2.6" stroke-linecap="round" fill="none" marker-end="url(#ah)"/></svg>