<svg role="img" aria-label="Бег на месте с высоким подниманием колен" xmlns="http://www.w3.org/2000/svg" viewBox="0 0 240 180" width="480" height="360"><defs>
<linearGradient id="bg" x1="0" y1="0" x2="1" y2="1"><stop offset="0" stop-color="#241e63"/><stop offset="1" stop-color="#120f33"/></linearGradient>
<radialGradient id="glow" cx=".78" cy=".12" r=".7"><stop offset="0" stop-color="#8b5cf6" stop-opacity=".38"/><stop offset="1" stop-color="#8b5cf6" stop-opacity="0"/></radialGradient>
<radialGradient id="glow2" cx=".1" cy=".95" r=".6"><stop offset="0" stop-color="#3b82f6" stop-opacity=".22"/><stop offset="1" stop-color="#3b82f6" stop-opacity="0"/></radialGradient>
<linearGradient id="body" gradientUnits="userSpaceOnUse" x1="40" y1="20" x2="200" y2="170"><stop offset="0" stop-color="#d8ccff"/><stop offset=".45" stop-color="#a78bfa"/><stop offset="1" stop-color="#60a5fa"/></linearGradient>
<linearGradient id="far" gradientUnits="userSpaceOnUse" x1="40" y1="20" x2="200" y2="170"><stop offset="0" stop-color="#7c6be0"/><stop offset="1" stop-color="#3f63d8"/></linearGradient>
<linearGradient id="prop" x1="0" y1="0" x2="0" y2="1"><stop offset="0" stop-color="#4a43a8"/><stop offset="1" stop-color="#2e2878"/></linearGradient>
<linearGradient id="iron" x1="0" y1="0" x2="1" y2="1"><stop offset="0" stop-color="#e0e7ff"/><stop offset="1" stop-color="#93a4f5"/></linearGradient>
<marker id="ah" viewBox="0 0 10 10" refX="5.5" refY="5" markerWidth="4.2" markerHeight="4.2" orient="auto-start-reverse"><path d="M0 0 L10 5 L0 10 z" fill="#f5a3ff"/></marker>
</defs><rect width="240" height="180" rx="18" fill="url(#bg)"/><rect width="240" height="180" rx="18" fill="url(#glow)"/><rect width="240" height="180" rx="18" fill="url(#glow2)"/><path d="M14 150.5 H226" stroke="rgba(196,181,253,.22)" stroke-width="1.5" stroke-linecap="round"/><path d="M103.9 74.8 L100.6 106.1 L98.5 136.6" fill="none" stroke="url(#far)" stroke-width="9.522" stroke-linecap="round" stroke-linejoin="round"/><path d="M98.5 136.6 L105.3 142.4" stroke="url(#far)" stroke-width="5.8500000000000005" stroke-linecap="round"/><path d="M106.8 33.5 L121.8 51.4 L132.6 32.7" fill="none" stroke="url(#far)" stroke-width="7.65" stroke-linecap="round" stroke-linejoin="round"/><circle cx="132.6" cy="32.7" r="4.1" fill="url(#far)"/><path d="M103.9 74.8 L106.8 33.5" stroke="url(#body)" stroke-width="14.4" stroke-linecap="round"/><path d="M103.9 74.8 L135.2 71.5 L137.3 102" fill="none" stroke="url(#body)" stroke-width="9.522" stroke-linecap="round" stroke-linejoin="round"/><path d="M137.3 102 L146.3 101.4" stroke="url(#body)" stroke-width="5.8500000000000005" stroke-linecap="round"/><path d="M106.8 33.5 L107.8 18.6" stroke="url(#body)" stroke-width="6.3" stroke-linecap="round"/><circle cx="107.8" cy="18.6" r="9.5" fill="url(#body)"/><path d="M116.4 22.5 A9.5 9.5 0 0 0 111.9 27.1 Q109.5 20.3 116.4 22.5Z" fill="#3b2f8f" opacity=".85"/><path d="M106.8 33.5 L93.7 52.9 L115 56.6" fill="none" stroke="url(#body)" stroke-width="7.65" stroke-linecap="round" stroke-linejoin="round"/><circle cx="115" cy="56.6" r="4.1" fill="url(#body)"/><path d="M151.2 97.5 L151.2 69.5" stroke="#f5a3ff" stroke-width="2.6" stroke-linecap="round" fill="none" marker-end="url(#ah)"/></svg>