<svg role="img" aria-label="Растяжка сгибателей бедра в выпаде" xmlns="http://www.w3.org/2000/svg" viewBox="0 0 240 180" width="480" height="360"><defs>
<linearGradient id="bg" x1="0" y1="0" x2="1" y2="1"><stop offset="0" stop-color="#241e63"/><stop offset="1" stop-color="#120f33"/></linearGradient>
<radialGradient id="glow" cx=".78" cy=".12" r=".7"><stop offset="0" stop-color="#8b5cf6" stop-opacity=".38"/><stop offset="1" stop-color="#8b5cf6" stop-opacity="0"/></radialGradient>
<radialGradient id="glow2" cx=".1" cy=".95" r=".6"><stop offset="0" stop-color="#3b82f6" stop-opacity=".22"/><stop offset="1" stop-color="#3b82f6" stop-opacity="0"/></radialGradient>
<linearGradient id="body" gradientUnits="userSpaceOnUse" x1="40" y1="20" x2="200" y2="170"><stop offset="0" stop-color="#d8ccff"/><stop offset=".45" stop-color="#a78bfa"/><stop offset="1" stop-color="#60a5fa"/></linearGradient>
<linearGradient id="far" gradientUnits="userSpaceOnUse" x1="40" y1="20" x2="200" y2="170"><stop offset="0" stop-color="#7c6be0"/><stop offset="1" stop-color="#3f63d8"/></linearGradient>
<linearGradient id="prop" x1="0" y1="0" x2="0" y2="1"><stop offset="0" stop-color="#4a43a8"/><stop offset="1" stop-color="#2e2878"/></linearGradient>
<linearGradient id="iron" x1="0" y1="0" x2="1" y2="1"><stop offset="0" stop-color="#e0e7ff"/><stop offset="1" stop-color="#93a4f5"/></linearGradient>
<marker id="ah" viewBox="0 0 10 10" refX="5.5" refY="5" markerWidth="4.2" markerHeight="4.2" orient="auto-start-reverse"><path d="M0 0 L10 5 L0 10 z" fill="#f5a3ff"/></marker>
</defs><rect width="240" height="180" rx="18" fill="url(#bg)"/><rect width="240" height="180" rx="18" fill="url(#glow)"/><rect width="240" height="180" rx="18" fill="url(#glow2)"/><path d="M14 150.5 H226" stroke="rgba(196,181,253,.22)" stroke-width="1.5" stroke-linecap="round"/><rect x="30" y="148" width="180" height="4" rx="2" fill="#6d28d9" opacity=".55"/><path d="M131 106.8 L109.4 134.4 L75.5 131.4" fill="none" stroke="url(#far)" stroke-width="10.58" stroke-linecap="round" stroke-linejoin="round"/><path d="M75.5 131.4 L65.6 130.5" stroke="url(#far)" stroke-width="6.5" stroke-linecap="round"/><path d="M129.4 60.8 L144.3 82.1 L144.3 106.1" fill="none" stroke="url(#far)" stroke-width="8.5" stroke-linecap="round" stroke-linejoin="round"/><circle cx="144.3" cy="106.1" r="4.6" fill="url(#far)"/><path d="M131 106.8 L129.4 60.8" stroke="url(#body)" stroke-width="16" stroke-linecap="round"/><path d="M131 106.8 L165.6 111.7 L164.4 145.7" fill="none" stroke="url(#body)" stroke-width="10.58" stroke-linecap="round" stroke-linejoin="round"/><path d="M164.4 145.7 L174.4 146" stroke="url(#body)" stroke-width="6.5" stroke-linecap="round"/><path d="M129.4 60.8 L128.8 44.3" stroke="url(#body)" stroke-width="7" stroke-linecap="round"/><circle cx="128.8" cy="44.3" r="10.5" fill="url(#body)"/><path d="M138.8 47.6 A10.5 10.5 0 0 0 134.3 53.2 Q130.8 46 138.8 47.6Z" fill="#3b2f8f" opacity=".85"/><path d="M129.4 60.8 L146.1 80.7 L146.1 104.7" fill="none" stroke="url(#body)" stroke-width="8.5" stroke-linecap="round" stroke-linejoin="round"/><circle cx="146.1" cy="104.7" r="4.6" fill="url(#body)"/><path d="M115 106.8 L141 106.8" stroke="#f5a3ff" stroke-width="2.6" stroke-linecap="round" fill="none" marker-end="url(#ah)"/></svg>