<svg role="img" aria-label="Отжимания от опоры (стол/скамья)" xmlns="http://www.w3.org/2000/svg" viewBox="0 0 240 180" width="480" height="360"><defs>
<linearGradient id="bg" x1="0" y1="0" x2="1" y2="1"><stop offset="0" stop-color="#241e63"/><stop offset="1" stop-color="#120f33"/></linearGradient>
<radialGradient id="glow" cx=".78" cy=".12" r=".7"><stop offset="0" stop-color="#8b5cf6" stop-opacity=".38"/><stop offset="1" stop-color="#8b5cf6" stop-opacity="0"/></radialGradient>
<radialGradient id="glow2" cx=".1" cy=".95" r=".6"><stop offset="0" stop-color="#3b82f6" stop-opacity=".22"/><stop offset="1" stop-color="#3b82f6" stop-opacity="0"/></radialGradient>
<linearGradient id="body" gradientUnits="userSpaceOnUse" x1="40" y1="20" x2="200" y2="170"><stop offset="0" stop-color="#d8ccff"/><stop offset=".45" stop-color="#a78bfa"/><stop offset="1" stop-color="#60a5fa"/></linearGradient>
<linearGradient id="far" gradientUnits="userSpaceOnUse" x1="40" y1="20" x2="200" y2="170"><stop offset="0" stop-color="#7c6be0"/><stop offset="1" stop-color="#3f63d8"/></linearGradient>
<linearGradient id="prop" x1="0" y1="0" x2="0" y2="1"><stop offset="0" stop-color="#4a43a8"/><stop offset="1" stop-color="#2e2878"/></linearGradient>
<linearGradient id="iron" x1="0" y1="0" x2="1" y2="1"><stop offset="0" stop-color="#e0e7ff"/><stop offset="1" stop-color="#93a4f5"/></linearGradient>
<marker id="ah" viewBox="0 0 10 10" refX="5.5" refY="5" markerWidth="4.2" markerHeight="4.2" orient="auto-start-reverse"><path d="M0 0 L10 5 L0 10 z" fill="#f5a3ff"/></marker>
</defs><rect width="240" height="180" rx="18" fill="url(#bg)"/><rect width="240" height="180" rx="18" fill="url(#glow)"/><rect width="240" height="180" rx="18" fill="url(#glow2)"/><path d="M14 150.5 H226" stroke="rgba(196,181,253,.22)" stroke-width="1.5" stroke-linecap="round"/><rect x="144.8" y="139.7" width="50" height="7" rx="3.5" fill="url(#prop)" stroke="rgba(165,180,252,.55)" stroke-width="1.2"/><rect x="150.8" y="146.7" width="5" height="3.3" rx="1.5" fill="#2b2570" stroke="rgba(165,180,252,.55)" stroke-width="1.2"/><rect x="183.8" y="146.7" width="5" height="3.3" rx="1.5" fill="#2b2570" stroke="rgba(165,180,252,.55)" stroke-width="1.2"/><g><path d="M117.7 114.8 L84.4 125.6 L52 136.2" fill="none" stroke="rgba(196,181,253,.24)" stroke-width="10.58" stroke-linecap="round" stroke-linejoin="round"/><path d="M52 136.2 L53.8 146" stroke="rgba(196,181,253,.24)" stroke-width="6.5" stroke-linecap="round"/><path d="M161.4 100.6 L143.4 119.3 L154.6 140.5" fill="none" stroke="rgba(196,181,253,.24)" stroke-width="8.5" stroke-linecap="round" stroke-linejoin="round"/><path d="M117.7 114.8 L161.4 100.6" stroke="rgba(196,181,253,.24)" stroke-width="16" stroke-linecap="round"/><path d="M117.7 114.8 L84.4 125.6 L52 136.2" fill="none" stroke="rgba(196,181,253,.24)" stroke-width="10.58" stroke-linecap="round" stroke-linejoin="round"/><path d="M52 136.2 L53.8 146" stroke="rgba(196,181,253,.24)" stroke-width="6.5" stroke-linecap="round"/><path d="M161.4 100.6 L177.1 95.5" stroke="rgba(196,181,253,.24)" stroke-width="7" stroke-linecap="round"/><circle cx="177.1" cy="95.5" r="10.5" fill="rgba(196,181,253,.24)"/><path d="M161.4 100.6 L144 119.9 L156 140.7" fill="none" stroke="rgba(196,181,253,.24)" stroke-width="8.5" stroke-linecap="round" stroke-linejoin="round"/></g><path d="M117.7 105.9 L86.2 121.2 L55.7 136.2" fill="none" stroke="url(#far)" stroke-width="10.58" stroke-linecap="round" stroke-linejoin="round"/><path d="M55.7 136.2 L57.4 146" stroke="url(#far)" stroke-width="6.5" stroke-linecap="round"/><path d="M159 85.7 L159 111.7 L158.2 135.7" fill="none" stroke="url(#far)" stroke-width="8.5" stroke-linecap="round" stroke-linejoin="round"/><circle cx="158.2" cy="135.7" r="4.6" fill="url(#far)"/><path d="M117.7 105.9 L159 85.7" stroke="url(#body)" stroke-width="16" stroke-linecap="round"/><path d="M117.7 105.9 L86.2 121.2 L55.7 136.2" fill="none" stroke="url(#body)" stroke-width="10.58" stroke-linecap="round" stroke-linejoin="round"/><path d="M55.7 136.2 L57.4 146" stroke="url(#body)" stroke-width="6.5" stroke-linecap="round"/><path d="M159 85.7 L173.8 78.5" stroke="url(#body)" stroke-width="7" stroke-linecap="round"/><circle cx="173.8" cy="78.5" r="10.5" fill="url(#body)"/><path d="M174.9 88.9 A10.5 10.5 0 0 0 168 87.2 Q173.2 81.1 174.9 88.9Z" fill="#3b2f8f" opacity=".85"/><path d="M159 85.7 L160.8 111.7 L160.8 135.7" fill="none" stroke="url(#body)" stroke-width="8.5" stroke-linecap="round" stroke-linejoin="round"/><circle cx="160.8" cy="135.7" r="4.6" fill="url(#body)"/><path d="M157 75.7 L157 51.7" stroke="#f5a3ff" stroke-width="2.6" stroke-linecap="round" fill="none" marker-start="url(#ah)" marker-end="url(#ah)"/></svg>