<svg role="img" aria-label="Махи гирей / гантелью" xmlns="http://www.w3.org/2000/svg" viewBox="0 0 240 180" width="480" height="360"><defs>
<linearGradient id="bg" x1="0" y1="0" x2="1" y2="1"><stop offset="0" stop-color="#241e63"/><stop offset="1" stop-color="#120f33"/></linearGradient>
<radialGradient id="glow" cx=".78" cy=".12" r=".7"><stop offset="0" stop-color="#8b5cf6" stop-opacity=".38"/><stop offset="1" stop-color="#8b5cf6" stop-opacity="0"/></radialGradient>
<radialGradient id="glow2" cx=".1" cy=".95" r=".6"><stop offset="0" stop-color="#3b82f6" stop-opacity=".22"/><stop offset="1" stop-color="#3b82f6" stop-opacity="0"/></radialGradient>
<linearGradient id="body" gradientUnits="userSpaceOnUse" x1="40" y1="20" x2="200" y2="170"><stop offset="0" stop-color="#d8ccff"/><stop offset=".45" stop-color="#a78bfa"/><stop offset="1" stop-color="#60a5fa"/></linearGradient>
<linearGradient id="far" gradientUnits="userSpaceOnUse" x1="40" y1="20" x2="200" y2="170"><stop offset="0" stop-color="#7c6be0"/><stop offset="1" stop-color="#3f63d8"/></linearGradient>
<linearGradient id="prop" x1="0" y1="0" x2="0" y2="1"><stop offset="0" stop-color="#4a43a8"/><stop offset="1" stop-color="#2e2878"/></linearGradient>
<linearGradient id="iron" x1="0" y1="0" x2="1" y2="1"><stop offset="0" stop-color="#e0e7ff"/><stop offset="1" stop-color="#93a4f5"/></linearGradient>
<marker id="ah" viewBox="0 0 10 10" refX="5.5" refY="5" markerWidth="4.2" markerHeight="4.2" orient="auto-start-reverse"><path d="M0 0 L10 5 L0 10 z" fill="#f5a3ff"/></marker>
</defs><rect width="240" height="180" rx="18" fill="url(#bg)"/><rect width="240" height="180" rx="18" fill="url(#glow)"/><rect width="240" height="180" rx="18" fill="url(#glow2)"/><path d="M14 150.5 H226" stroke="rgba(196,181,253,.22)" stroke-width="1.5" stroke-linecap="round"/><g><path d="M106.5 80.6 L118 112.2 L107.9 143.2" fill="none" stroke="rgba(196,181,253,.24)" stroke-width="10.1568" stroke-linecap="round" stroke-linejoin="round"/><path d="M107.9 143.2 L117.1 146.2" stroke="rgba(196,181,253,.24)" stroke-width="6.24" stroke-linecap="round"/><path d="M147.5 64 L139.8 87.8 L131.1 109.1" fill="none" stroke="rgba(196,181,253,.24)" stroke-width="8.16" stroke-linecap="round" stroke-linejoin="round"/><path d="M106.5 80.6 L147.5 64" stroke="rgba(196,181,253,.24)" stroke-width="15.36" stroke-linecap="round"/><path d="M106.5 80.6 L120.2 111.3 L112.3 142.9" fill="none" stroke="rgba(196,181,253,.24)" stroke-width="10.1568" stroke-linecap="round" stroke-linejoin="round"/><path d="M112.3 142.9 L121.6 145.3" stroke="rgba(196,181,253,.24)" stroke-width="6.24" stroke-linecap="round"/><path d="M147.5 64 L162.2 58.1" stroke="rgba(196,181,253,.24)" stroke-width="6.72" stroke-linecap="round"/><circle cx="162.2" cy="58.1" r="10.1" fill="rgba(196,181,253,.24)"/><path d="M147.5 64 L141.4 88.3 L134.3 110.2" fill="none" stroke="rgba(196,181,253,.24)" stroke-width="8.16" stroke-linecap="round" stroke-linejoin="round"/></g><path d="M106.5 80 L104.2 113.5 L104.2 146.2" fill="none" stroke="url(#far)" stroke-width="10.1568" stroke-linecap="round" stroke-linejoin="round"/><path d="M104.2 146.2 L113.8 146.2" stroke="url(#far)" stroke-width="6.24" stroke-linecap="round"/><path d="M101.9 36.1 L126.8 34.3 L149.8 32.7" fill="none" stroke="url(#far)" stroke-width="8.16" stroke-linecap="round" stroke-linejoin="round"/><circle cx="149.8" cy="32.7" r="4.4" fill="url(#far)"/><path d="M106.5 80 L101.9 36.1" stroke="url(#body)" stroke-width="15.36" stroke-linecap="round"/><path d="M106.5 80 L108.9 113.5 L108.9 146.2" fill="none" stroke="url(#body)" stroke-width="10.1568" stroke-linecap="round" stroke-linejoin="round"/><path d="M108.9 146.2 L118.5 146.2" stroke="url(#body)" stroke-width="6.24" stroke-linecap="round"/><path d="M101.9 36.1 L100.3 20.3" stroke="url(#body)" stroke-width="6.72" stroke-linecap="round"/><circle cx="100.3" cy="20.3" r="10.1" fill="url(#body)"/><path d="M110.1 22.8 A10.1 10.1 0 0 0 106.2 28.5 Q102.4 21.7 110.1 22.8Z" fill="#3b2f8f" opacity=".85"/><path d="M101.9 36.1 L126.7 33.5 L149.7 31.1" fill="none" stroke="url(#body)" stroke-width="8.16" stroke-linecap="round" stroke-linejoin="round"/><circle cx="149.7" cy="31.1" r="4.4" fill="url(#body)"/><g transform="translate(155.7 31.1)"><path d="M-5 -3 Q-5 -9 0 -9 Q5 -9 5 -3" fill="none" stroke="url(#iron)" stroke-width="2.6"/><circle cx="0" cy="4" r="8" fill="#4f46e5" stroke="#a5b4fc" stroke-width="1.2"/></g><path d="M125.1 98.7 A56 56 0 0 0 161.7 51" stroke="#f5a3ff" stroke-width="2.6" stroke-linecap="round" fill="none" marker-end="url(#ah)"/></svg>