<svg role="img" aria-label="Жим на плечи в тренажёре" xmlns="http://www.w3.org/2000/svg" viewBox="0 0 240 180" width="480" height="360"><defs>
<linearGradient id="bg" x1="0" y1="0" x2="1" y2="1"><stop offset="0" stop-color="#241e63"/><stop offset="1" stop-color="#120f33"/></linearGradient>
<radialGradient id="glow" cx=".78" cy=".12" r=".7"><stop offset="0" stop-color="#8b5cf6" stop-opacity=".38"/><stop offset="1" stop-color="#8b5cf6" stop-opacity="0"/></radialGradient>
<radialGradient id="glow2" cx=".1" cy=".95" r=".6"><stop offset="0" stop-color="#3b82f6" stop-opacity=".22"/><stop offset="1" stop-color="#3b82f6" stop-opacity="0"/></radialGradient>
<linearGradient id="body" gradientUnits="userSpaceOnUse" x1="40" y1="20" x2="200" y2="170"><stop offset="0" stop-color="#d8ccff"/><stop offset=".45" stop-color="#a78bfa"/><stop offset="1" stop-color="#60a5fa"/></linearGradient>
<linearGradient id="far" gradientUnits="userSpaceOnUse" x1="40" y1="20" x2="200" y2="170"><stop offset="0" stop-color="#7c6be0"/><stop offset="1" stop-color="#3f63d8"/></linearGradient>
<linearGradient id="prop" x1="0" y1="0" x2="0" y2="1"><stop offset="0" stop-color="#4a43a8"/><stop offset="1" stop-color="#2e2878"/></linearGradient>
<linearGradient id="iron" x1="0" y1="0" x2="1" y2="1"><stop offset="0" stop-color="#e0e7ff"/><stop offset="1" stop-color="#93a4f5"/></linearGradient>
<marker id="ah" viewBox="0 0 10 10" refX="5.5" refY="5" markerWidth="4.2" markerHeight="4.2" orient="auto-start-reverse"><path d="M0 0 L10 5 L0 10 z" fill="#f5a3ff"/></marker>
</defs><rect width="240" height="180" rx="18" fill="url(#bg)"/><rect width="240" height="180" rx="18" fill="url(#glow)"/><rect width="240" height="180" rx="18" fill="url(#glow2)"/><path d="M14 150.5 H226" stroke="rgba(196,181,253,.22)" stroke-width="1.5" stroke-linecap="round"/><rect x="85.3" y="115.8" width="36" height="8" rx="4" fill="url(#prop)" stroke="rgba(165,180,252,.55)" stroke-width="1.2"/><rect x="81.3" y="54.8" width="9" height="66" rx="4" fill="url(#prop)" stroke="rgba(165,180,252,.55)" stroke-width="1.2"/><rect x="99.3" y="123.8" width="8" height="26.2" rx="2" fill="#2b2570" stroke="rgba(165,180,252,.55)" stroke-width="1.2"/><g><path d="M103.3 110.8 L138.2 112 L138.2 146" fill="none" stroke="rgba(196,181,253,.24)" stroke-width="10.58" stroke-linecap="round" stroke-linejoin="round"/><path d="M138.2 146 L148.2 146" stroke="rgba(196,181,253,.24)" stroke-width="6.5" stroke-linecap="round"/><path d="M101.6 64.8 L123.7 78.6 L127.9 54.9" fill="none" stroke="rgba(196,181,253,.24)" stroke-width="8.5" stroke-linecap="round" stroke-linejoin="round"/><path d="M103.3 110.8 L101.6 64.8" stroke="rgba(196,181,253,.24)" stroke-width="16" stroke-linecap="round"/><path d="M103.3 110.8 L138.3 110.8 L139.4 144.8" fill="none" stroke="rgba(196,181,253,.24)" stroke-width="10.58" stroke-linecap="round" stroke-linejoin="round"/><path d="M139.4 144.8 L149.4 144.4" stroke="rgba(196,181,253,.24)" stroke-width="6.5" stroke-linecap="round"/><path d="M101.6 64.8 L101.1 48.3" stroke="rgba(196,181,253,.24)" stroke-width="7" stroke-linecap="round"/><circle cx="101.1" cy="48.3" r="10.5" fill="rgba(196,181,253,.24)"/><path d="M101.6 64.8 L124.2 77.8 L127.5 54" fill="none" stroke="rgba(196,181,253,.24)" stroke-width="8.5" stroke-linecap="round" stroke-linejoin="round"/></g><path d="M103.3 110.8 L138.2 112 L138.2 146" fill="none" stroke="url(#far)" stroke-width="10.58" stroke-linecap="round" stroke-linejoin="round"/><path d="M138.2 146 L148.2 146" stroke="url(#far)" stroke-width="6.5" stroke-linecap="round"/><path d="M101.6 64.8 L106.2 39.2 L105.3 15.2" fill="none" stroke="url(#far)" stroke-width="8.5" stroke-linecap="round" stroke-linejoin="round"/><circle cx="105.3" cy="15.2" r="4.6" fill="url(#far)"/><path d="M103.3 110.8 L101.6 64.8" stroke="url(#body)" stroke-width="16" stroke-linecap="round"/><path d="M103.3 110.8 L138.3 110.8 L139.4 144.8" fill="none" stroke="url(#body)" stroke-width="10.58" stroke-linecap="round" stroke-linejoin="round"/><path d="M139.4 144.8 L149.4 144.4" stroke="url(#body)" stroke-width="6.5" stroke-linecap="round"/><path d="M101.6 64.8 L101.1 48.3" stroke="url(#body)" stroke-width="7" stroke-linecap="round"/><circle cx="101.1" cy="48.3" r="10.5" fill="url(#body)"/><path d="M111.1 51.6 A10.5 10.5 0 0 0 106.6 57.2 Q103.1 49.9 111.1 51.6Z" fill="#3b2f8f" opacity=".85"/><path d="M101.6 64.8 L105.3 39.1 L103.6 15.1" fill="none" stroke="url(#body)" stroke-width="8.5" stroke-linecap="round" stroke-linejoin="round"/><circle cx="103.6" cy="15.1" r="4.6" fill="url(#body)"/><rect x="96.6" y="12.1" width="14" height="6" rx="3" fill="#4f46e5" stroke="rgba(165,180,252,.55)" stroke-width="1.2"/><path d="M127.6 25.1 L127.6 51.1" stroke="#f5a3ff" stroke-width="2.6" stroke-linecap="round" fill="none" marker-start="url(#ah)" marker-end="url(#ah)"/></svg>