<svg role="img" aria-label="Планка" xmlns="http://www.w3.org/2000/svg" viewBox="0 0 240 180" width="480" height="360"><defs>
<linearGradient id="bg" x1="0" y1="0" x2="1" y2="1"><stop offset="0" stop-color="#241e63"/><stop offset="1" stop-color="#120f33"/></linearGradient>
<radialGradient id="glow" cx=".78" cy=".12" r=".7"><stop offset="0" stop-color="#8b5cf6" stop-opacity=".38"/><stop offset="1" stop-color="#8b5cf6" stop-opacity="0"/></radialGradient>
<radialGradient id="glow2" cx=".1" cy=".95" r=".6"><stop offset="0" stop-color="#3b82f6" stop-opacity=".22"/><stop offset="1" stop-color="#3b82f6" stop-opacity="0"/></radialGradient>
<linearGradient id="body" gradientUnits="userSpaceOnUse" x1="40" y1="20" x2="200" y2="170"><stop offset="0" stop-color="#d8ccff"/><stop offset=".45" stop-color="#a78bfa"/><stop offset="1" stop-color="#60a5fa"/></linearGradient>
<linearGradient id="far" gradientUnits="userSpaceOnUse" x1="40" y1="20" x2="200" y2="170"><stop offset="0" stop-color="#7c6be0"/><stop offset="1" stop-color="#3f63d8"/></linearGradient>
<linearGradient id="prop" x1="0" y1="0" x2="0" y2="1"><stop offset="0" stop-color="#4a43a8"/><stop offset="1" stop-color="#2e2878"/></linearGradient>
<linearGradient id="iron" x1="0" y1="0" x2="1" y2="1"><stop offset="0" stop-color="#e0e7ff"/><stop offset="1" stop-color="#93a4f5"/></linearGradient>
<marker id="ah" viewBox="0 0 10 10" refX="5.5" refY="5" markerWidth="4.2" markerHeight="4.2" orient="auto-start-reverse"><path d="M0 0 L10 5 L0 10 z" fill="#f5a3ff"/></marker>
</defs><rect width="240" height="180" rx="18" fill="url(#bg)"/><rect width="240" height="180" rx="18" fill="url(#glow)"/><rect width="240" height="180" rx="18" fill="url(#glow2)"/><path d="M14 150.5 H226" stroke="rgba(196,181,253,.22)" stroke-width="1.5" stroke-linecap="round"/><rect x="20" y="148" width="200" height="4" rx="2" fill="#6d28d9" opacity=".55"/><path d="M118 122.4 L83.1 124.8 L49.2 127.2" fill="none" stroke="url(#far)" stroke-width="10.58" stroke-linecap="round" stroke-linejoin="round"/><path d="M49.2 127.2 L50.9 137" stroke="url(#far)" stroke-width="6.5" stroke-linecap="round"/><path d="M163.9 119.2 L163 145.2 L187 146" fill="none" stroke="url(#far)" stroke-width="8.5" stroke-linecap="round" stroke-linejoin="round"/><circle cx="187" cy="146" r="4.6" fill="url(#far)"/><path d="M118 122.4 L163.9 119.2" stroke="url(#body)" stroke-width="16" stroke-linecap="round"/><path d="M118 122.4 L83.1 124.8 L49.2 127.2" fill="none" stroke="url(#body)" stroke-width="10.58" stroke-linecap="round" stroke-linejoin="round"/><path d="M49.2 127.2 L50.9 137" stroke="url(#body)" stroke-width="6.5" stroke-linecap="round"/><path d="M163.9 119.2 L180.3 118" stroke="url(#body)" stroke-width="7" stroke-linecap="round"/><circle cx="180.3" cy="118" r="10.5" fill="url(#body)"/><path d="M177.4 128.1 A10.5 10.5 0 0 0 171.6 123.9 Q178.8 120.2 177.4 128.1Z" fill="#3b2f8f" opacity=".85"/><path d="M163.9 119.2 L163.9 145.2 L187.9 145.2" fill="none" stroke="url(#body)" stroke-width="8.5" stroke-linecap="round" stroke-linejoin="round"/><circle cx="187.9" cy="145.2" r="4.6" fill="url(#body)"/><g transform="translate(179.9 83.2)" opacity=".9"><circle r="9" fill="none" stroke="#f5a3ff" stroke-width="2.2"/><path d="M0 -4.5 V0 L3.5 2.5" stroke="#f5a3ff" stroke-width="2" stroke-linecap="round" fill="none"/><path d="M-3 -12 h6" stroke="#f5a3ff" stroke-width="2.2" stroke-linecap="round"/></g></svg>