<svg role="img" aria-label="Разминка: суставы + лёгкое кардио" xmlns="http://www.w3.org/2000/svg" viewBox="0 0 240 180" width="480" height="360"><defs>
<linearGradient id="bg" x1="0" y1="0" x2="1" y2="1"><stop offset="0" stop-color="#241e63"/><stop offset="1" stop-color="#120f33"/></linearGradient>
<radialGradient id="glow" cx=".78" cy=".12" r=".7"><stop offset="0" stop-color="#8b5cf6" stop-opacity=".38"/><stop offset="1" stop-color="#8b5cf6" stop-opacity="0"/></radialGradient>
<radialGradient id="glow2" cx=".1" cy=".95" r=".6"><stop offset="0" stop-color="#3b82f6" stop-opacity=".22"/><stop offset="1" stop-color="#3b82f6" stop-opacity="0"/></radialGradient>
<linearGradient id="body" gradientUnits="userSpaceOnUse" x1="40" y1="20" x2="200" y2="170"><stop offset="0" stop-color="#d8ccff"/><stop offset=".45" stop-color="#a78bfa"/><stop offset="1" stop-color="#60a5fa"/></linearGradient>
<linearGradient id="far" gradientUnits="userSpaceOnUse" x1="40" y1="20" x2="200" y2="170"><stop offset="0" stop-color="#7c6be0"/><stop offset="1" stop-color="#3f63d8"/></linearGradient>
<linearGradient id="prop" x1="0" y1="0" x2="0" y2="1"><stop offset="0" stop-color="#4a43a8"/><stop offset="1" stop-color="#2e2878"/></linearGradient>
<linearGradient id="iron" x1="0" y1="0" x2="1" y2="1"><stop offset="0" stop-color="#e0e7ff"/><stop offset="1" stop-color="#93a4f5"/></linearGradient>
<marker id="ah" viewBox="0 0 10 10" refX="5.5" refY="5" markerWidth="4.2" markerHeight="4.2" orient="auto-start-reverse"><path d="M0 0 L10 5 L0 10 z" fill="#f5a3ff"/></marker>
</defs><rect width="240" height="180" rx="18" fill="url(#bg)"/><rect width="240" height="180" rx="18" fill="url(#glow)"/><rect width="240" height="180" rx="18" fill="url(#glow2)"/><path d="M14 150.5 H226" stroke="rgba(196,181,253,.22)" stroke-width="1.5" stroke-linecap="round"/><path d="M127.2 84.5 L130.5 115.8 L131.6 146.4" fill="none" stroke="url(#body)" stroke-width="9.522" stroke-linecap="round" stroke-linejoin="round"/><path d="M131.6 146.4 L137 146.4" stroke="url(#body)" stroke-width="5.8500000000000005" stroke-linecap="round"/><path d="M112.8 84.5 L109.5 115.8 L108.4 146.4" fill="none" stroke="url(#body)" stroke-width="9.522" stroke-linecap="round" stroke-linejoin="round"/><path d="M108.4 146.4 L103 146.4" stroke="url(#body)" stroke-width="5.8500000000000005" stroke-linecap="round"/><path d="M133.5 43.1 L106.5 43.1 L111 84.5 L129 84.5 Z" fill="url(#body)" stroke="url(#body)" stroke-width="6.3" stroke-linejoin="round"/><path d="M131.7 43.1 L149.6 28 L160.4 9.3" fill="none" stroke="url(#body)" stroke-width="7.65" stroke-linecap="round" stroke-linejoin="round"/><circle cx="160.4" cy="9.3" r="4.1" fill="url(#body)"/><path d="M108.3 43.1 L90.4 28 L79.6 9.3" fill="none" stroke="url(#body)" stroke-width="7.65" stroke-linecap="round" stroke-linejoin="round"/><circle cx="79.6" cy="9.3" r="4.1" fill="url(#body)"/><path d="M120 43.1 L120 28.2" stroke="url(#body)" stroke-width="6.3" stroke-linecap="round"/><circle cx="120" cy="28.2" r="9.5" fill="url(#body)"/><path d="M111 27.2 A9.5 9.5 0 0 1 129 27.2 Q120 24.9 111 27.2Z" fill="#3b2f8f" opacity=".9"/><path d="M75.8 19.7 A11 11 0 1 0 69.2 5.6" stroke="#f5a3ff" stroke-width="2.6" stroke-linecap="round" fill="none" marker-end="url(#ah)"/><path d="M164.2 19.7 A11 11 0 1 1 170.8 5.6" stroke="#f5a3ff" stroke-width="2.6" stroke-linecap="round" fill="none" marker-end="url(#ah)"/></svg>