<svg xmlns="http://www.w3.org/2000/svg" viewBox="0 0 512 512" width="512" height="512">
  <title>Здоровье</title>
  <defs>
    <linearGradient id="bg" x1="0" y1="0" x2="1" y2="1">
      <stop offset="0" stop-color="#8b5cf6"/>
      <stop offset=".5" stop-color="#5b4cf0"/>
      <stop offset="1" stop-color="#2563eb"/>
    </linearGradient>
    <radialGradient id="hl" cx=".28" cy=".16" r=".85">
      <stop offset="0" stop-color="#ffffff" stop-opacity=".32"/>
      <stop offset=".45" stop-color="#ffffff" stop-opacity=".05"/>
      <stop offset="1" stop-color="#0f0c29" stop-opacity=".30"/>
    </radialGradient>
    <linearGradient id="moon" x1="0" y1="0" x2="1" y2="1">
      <stop offset="0" stop-color="#ffffff"/>
      <stop offset=".55" stop-color="#ede9fe"/>
      <stop offset="1" stop-color="#bfdbfe"/>
    </linearGradient>
    <filter id="soft" x="-40%" y="-40%" width="180%" height="180%"><feGaussianBlur stdDeviation="16"/></filter>
  </defs>
  <rect width="512" height="512" rx="112" fill="url(#bg)"/>
  <rect width="512" height="512" rx="112" fill="url(#hl)"/>
  <g transform="translate(0.00 0.00) scale(1.0)">
    <path d="M224.64 126.43 A150 150 0 1 0 376.81 327.69 A128 128 0 0 1 224.64 126.43 Z" fill="#e9d5ff" opacity=".55" filter="url(#soft)"/>
    <path d="M224.64 126.43 A150 150 0 1 0 376.81 327.69 A128 128 0 0 1 224.64 126.43 Z" fill="url(#moon)"/>
    <path d="M352 112 C357 154 368 165 410 170 C368 175 357 186 352 228 C347 186 336 175 294 170 C336 165 347 154 352 112 Z" fill="#ffffff"/>
    <path d="M410 258 C412 275 417 280 434 282 C417 284 412 289 410 306 C408 289 403 284 386 282 C403 280 408 275 410 258 Z" fill="#ffffff" opacity=".92"/>
    <circle cx="306" cy="292" r="9" fill="#ffffff" opacity=".85"/>
    <circle cx="140" cy="140" r="6" fill="#ffffff" opacity=".6"/>
  </g>
  <rect x="3" y="3" width="506" height="506" rx="109" fill="none" stroke="#ffffff" stroke-opacity=".18" stroke-width="6"/>
</svg>
